<svg width="64" height="72" viewBox="0 0 64 72" fill="none" xmlns="http://www.w3.org/2000/svg">
  <defs>
    <linearGradient id="nectf-main" x1="0" y1="0" x2="1" y2="1">
      <stop offset="0%" stop-color="#E0B0FF" />
      <stop offset="50%" stop-color="#D946EF" />
      <stop offset="100%" stop-color="#F472B6" />
    </linearGradient>
    <linearGradient id="nectf-cap" x1="0" y1="0" x2="1" y2="1">
      <stop offset="0%" stop-color="#F9A8D4" />
      <stop offset="100%" stop-color="#C084FC" />
    </linearGradient>
    <linearGradient id="nectf-book" x1="0" y1="0" x2="1" y2="1">
      <stop offset="0%" stop-color="#D8B4FE" />
      <stop offset="60%" stop-color="#818CF8" />
      <stop offset="100%" stop-color="#6366F1" />
    </linearGradient>
  </defs>

  <polygon points="32,4 58,18 32,28 6,18" fill="url(#nectf-cap)" stroke="rgba(255,255,255,0.3)" stroke-width="0.5" />
  <polygon points="32,28 58,18 58,20 32,30 6,20 6,18" fill="rgba(0,0,0,0.15)" />

  <circle cx="32" cy="34" r="11" fill="url(#nectf-main)" />

  <line x1="50" y1="18" x2="54" y2="28" stroke="url(#nectf-main)" stroke-width="2" stroke-linecap="round" />
  <circle cx="54" cy="30" r="2.5" fill="url(#nectf-main)" />

  <path d="M6 56 Q6 50 16 50 Q24 50 32 54 L32 66 Q24 62 16 62 Q6 62 6 56 Z" fill="url(#nectf-book)" opacity="0.9" />
  <path d="M58 56 Q58 50 48 50 Q40 50 32 54 L32 66 Q40 62 48 62 Q58 62 58 56 Z" fill="url(#nectf-book)" opacity="0.75" />
  <line x1="32" y1="54" x2="32" y2="66" stroke="rgba(255,255,255,0.2)" stroke-width="1" />
</svg>
